<svg xmlns="http://www.w3.org/2000/svg" version="1.1" xmlns:xlink="http://www.w3.org/1999/xlink" xmlns:svgjs="http://svgjs.dev/svgjs" width="100%" height="100%" viewBox="0 0 1000 600"><rect width="1000" height="600" x="0" y="0" fill="#050505"/><g><rect width="333.3333333333333" height="333.3333333333333" y="113.42712713805895" fill="#616161" transform="matrix(1.3705400985008767,0,0,1.3705400985008767,0,-83.8797819437471)" x="91.20489501953125"/><path d="M248.56300078451625 355.0938007221439L192.5901310909927 355.0938007221439L192.5901310909927 205.0937988684744L248.56300078451625 205.0937988684744Q272.19126590744696 205.0937988684744 288.803940743235 212.95976373587683Q305.4166155790231 220.8257286032792 314.284807630303 237.34729187689658Q323.1529996815829 253.83848462979034 323.1529996815829 280.0786145349474L323.1529996815829 280.0786145349474Q323.1529996815829 305.8935571499745 314.284807630303 322.50623198576255Q305.4166155790231 339.11890682155064 288.803940743235 347.10635377184724Q272.19126590744696 355.0938007221439 248.56300078451625 355.0938007221439L248.56300078451625 355.0938007221439ZM213.36356726590867 223.0124060953756L213.36356726590867 337.1751934952427L248.1378134943864 337.1751934952427Q260.5897269910465 337.1751934952427 270.42977570548044 333.9862888192688Q280.2698244199143 330.82775466401836 287.28541470705693 324.26772218772913Q294.2706344734761 317.7076897114399 297.8847264395799 307.3209716239819Q301.49881840568366 296.9342535365239 301.49881840568366 282.5082561928323L301.49881840568366 282.5082561928323L301.49881840568366 278.13490120863946Q301.49881840568366 263.2533460540944 297.8847264395799 252.86662796663643Q294.2706344734761 242.47990987917842 287.3765262692276 235.91987740288917Q280.51278858570276 229.35984492659995 270.6727398712689 226.20131077134957Q260.83269115683504 223.0124060953756 248.1378134943864 223.0124060953756L248.1378134943864 223.0124060953756L213.36356726590867 223.0124060953756Z " fill="#050505" transform="matrix(1.3705400985008767,0,0,1.3705400985008767,0,-83.8797819437471)"/><path d="M563.844433889985 355.0938007221439L507.8715641964614 355.0938007221439L507.8715641964614 205.0937988684744L563.844433889985 205.0937988684744Q587.4726990129157 205.0937988684744 604.0853738487037 212.95976373587683Q620.6980486844918 220.8257286032792 629.5662407357718 237.34729187689658Q638.4344327870516 253.83848462979034 638.4344327870516 280.0786145349474L638.4344327870516 280.0786145349474Q638.4344327870516 305.8935571499745 629.5662407357718 322.50623198576255Q620.6980486844918 339.11890682155064 604.0853738487037 347.10635377184724Q587.4726990129157 355.0938007221439 563.844433889985 355.0938007221439L563.844433889985 355.0938007221439ZM528.6450003713774 223.0124060953756L528.6450003713774 337.1751934952427L563.4192465998551 337.1751934952427Q575.8711600965153 337.1751934952427 585.7112088109491 333.9862888192688Q595.551257525383 330.82775466401836 602.5668478125257 324.26772218772913Q609.5520675789448 317.7076897114399 613.1661595450486 307.3209716239819Q616.7802515111524 296.9342535365239 616.7802515111524 282.5082561928323L616.7802515111524 282.5082561928323L616.7802515111524 278.13490120863946Q616.7802515111524 263.2533460540944 613.1661595450486 252.86662796663643Q609.5520675789448 242.47990987917842 602.6579593746964 235.91987740288917Q595.7942216911715 229.35984492659995 585.9541729767376 226.20131077134957Q576.1141242623037 223.0124060953756 563.4192465998551 223.0124060953756L563.4192465998551 223.0124060953756L528.6450003713774 223.0124060953756Z " fill="#616161" transform="matrix(1.3705400985008767,0,0,1.3705400985008767,0,-83.8797819437471)"/></g></svg>